{
	"asset":{
		"generator":"Khronos glTF Blender I/O v3.6.27",
		"version":"2.0"
	},
	"scene":0,
	"scenes":[
		{
			"name":"Scene",
			"nodes":[
				0,
				1,
				2,
				3
			]
		}
	],
	"nodes":[
		{
			"mesh":0,
			"name":"Cube",
			"scale":[
				0.121609166264534,
				3.0819613933563232,
				0.5671408772468567
			],
			"translation":[
				0,
				0,
				0.0011537494137883186
			]
		},
		{
			"name":"Cube.001",
			"scale":[
				0.6293097138404846,
				1.597029209136963,
				0.8028323650360107
			],
			"translation":[
				-0.03643244132399559,
				0,
				0.014048120938241482
			]
		},
		{
			"mesh":1,
			"name":"Cylinder.001",
			"scale":[
				1,
				1.0820636749267578,
				1
			],
			"translation":[
				0,
				0.07398071885108948,
				0
			]
		},
		{
			"mesh":2,
			"name":"Cube.002",
			"scale":[
				0.6293097138404846,
				1.597029209136963,
				0.8028323650360107
			],
			"translation":[
				-0.03643244132399559,
				0,
				0.014048120938241482
			]
		}
	],
	"materials":[
		{
			"doubleSided":true,
			"name":"Frame Base Color",
			"pbrMetallicRoughness":{
				"baseColorFactor":[
					0.8000000715255737,
					0.7037422060966492,
					0.6824074983596802,
					1
				],
				"metallicFactor":0,
				"roughnessFactor":0.4000000059604645
			}
		},
		{
			"doubleSided":true,
			"name":"Base Material",
			"pbrMetallicRoughness":{
				"baseColorFactor":[
					0.8000000715255737,
					0.7334259748458862,
					0.783039927482605,
					1
				],
				"metallicFactor":0.30069929361343384,
				"roughnessFactor":0.4000000059604645
			}
		},
		{
			"alphaMode":"BLEND",
			"doubleSided":true,
			"name":"Window Glass Material",
			"pbrMetallicRoughness":{
				"baseColorFactor":[
					0.5873585939407349,
					0.5608201622962952,
					0.6146152019500732,
					0.2601625919342041
				],
				"metallicFactor":0,
				"roughnessFactor":0.48373985290527344
			}
		},
		{
			"doubleSided":true,
			"name":"Glass Frame Material",
			"pbrMetallicRoughness":{
				"baseColorFactor":[
					0.05140449479222298,
					0.09078831970691681,
					0.8000000715255737,
					1
				],
				"metallicFactor":0.4055944085121155,
				"roughnessFactor":0.4000000059604645
			}
		}
	],
	"meshes":[
		{
			"name":"Cube.001",
			"primitives":[
				{
					"attributes":{
						"POSITION":0,
						"NORMAL":1,
						"TEXCOORD_0":2
					},
					"indices":3,
					"material":0
				}
			]
		},
		{
			"name":"Cylinder.003",
			"primitives":[
				{
					"attributes":{
						"POSITION":4,
						"NORMAL":5,
						"TEXCOORD_0":6
					},
					"indices":7,
					"material":1
				}
			]
		},
		{
			"name":"Cube.011",
			"primitives":[
				{
					"attributes":{
						"POSITION":8,
						"NORMAL":9,
						"TEXCOORD_0":10
					},
					"indices":11,
					"material":2
				},
				{
					"attributes":{
						"POSITION":12,
						"NORMAL":13,
						"TEXCOORD_0":14
					},
					"indices":15,
					"material":3
				}
			]
		}
	],
	"accessors":[
		{
			"bufferView":0,
			"componentType":5126,
			"count":230,
			"max":[
				0.50043785572052,
				0.7412732839584351,
				3.6591148376464844
			],
			"min":[
				-1.0655802488327026,
				0.0046214759349823,
				-3.6591148376464844
			],
			"type":"VEC3"
		},
		{
			"bufferView":1,
			"componentType":5126,
			"count":230,
			"type":"VEC3"
		},
		{
			"bufferView":2,
			"componentType":5126,
			"count":230,
			"type":"VEC2"
		},
		{
			"bufferView":3,
			"componentType":5123,
			"count":540,
			"type":"SCALAR"
		},
		{
			"bufferView":4,
			"componentType":5126,
			"count":384,
			"max":[
				0.030470341444015503,
				1.9151158332824707,
				1.9892762899398804
			],
			"min":[
				-0.13256284594535828,
				0.12813997268676758,
				-1.9892762899398804
			],
			"type":"VEC3"
		},
		{
			"bufferView":5,
			"componentType":5126,
			"count":384,
			"type":"VEC3"
		},
		{
			"bufferView":6,
			"componentType":5126,
			"count":384,
			"type":"VEC2"
		},
		{
			"bufferView":7,
			"componentType":5123,
			"count":744,
			"type":"SCALAR"
		},
		{
			"bufferView":8,
			"componentType":5126,
			"count":16,
			"max":[
				0.0006870739161968231,
				1.3444387912750244,
				2.3176794052124023
			],
			"min":[
				-0.0006870739161968231,
				0.12459641695022583,
				-2.3176794052124023
			],
			"type":"VEC3"
		},
		{
			"bufferView":9,
			"componentType":5126,
			"count":16,
			"type":"VEC3"
		},
		{
			"bufferView":10,
			"componentType":5126,
			"count":16,
			"type":"VEC2"
		},
		{
			"bufferView":11,
			"componentType":5123,
			"count":24,
			"type":"SCALAR"
		},
		{
			"bufferView":12,
			"componentType":5126,
			"count":352,
			"max":[
				0.11356221139431,
				1.3444387912750244,
				2.3176794052124023
			],
			"min":[
				-0.11356221139431,
				0.12459641695022583,
				-2.3176794052124023
			],
			"type":"VEC3"
		},
		{
			"bufferView":13,
			"componentType":5126,
			"count":352,
			"type":"VEC3"
		},
		{
			"bufferView":14,
			"componentType":5126,
			"count":352,
			"type":"VEC2"
		},
		{
			"bufferView":15,
			"componentType":5123,
			"count":576,
			"type":"SCALAR"
		}
	],
	"bufferViews":[
		{
			"buffer":0,
			"byteLength":2760,
			"byteOffset":0,
			"target":34962
		},
		{
			"buffer":0,
			"byteLength":2760,
			"byteOffset":2760,
			"target":34962
		},
		{
			"buffer":0,
			"byteLength":1840,
			"byteOffset":5520,
			"target":34962
		},
		{
			"buffer":0,
			"byteLength":1080,
			"byteOffset":7360,
			"target":34963
		},
		{
			"buffer":0,
			"byteLength":4608,
			"byteOffset":8440,
			"target":34962
		},
		{
			"buffer":0,
			"byteLength":4608,
			"byteOffset":13048,
			"target":34962
		},
		{
			"buffer":0,
			"byteLength":3072,
			"byteOffset":17656,
			"target":34962
		},
		{
			"buffer":0,
			"byteLength":1488,
			"byteOffset":20728,
			"target":34963
		},
		{
			"buffer":0,
			"byteLength":192,
			"byteOffset":22216,
			"target":34962
		},
		{
			"buffer":0,
			"byteLength":192,
			"byteOffset":22408,
			"target":34962
		},
		{
			"buffer":0,
			"byteLength":128,
			"byteOffset":22600,
			"target":34962
		},
		{
			"buffer":0,
			"byteLength":48,
			"byteOffset":22728,
			"target":34963
		},
		{
			"buffer":0,
			"byteLength":4224,
			"byteOffset":22776,
			"target":34962
		},
		{
			"buffer":0,
			"byteLength":4224,
			"byteOffset":27000,
			"target":34962
		},
		{
			"buffer":0,
			"byteLength":2816,
			"byteOffset":31224,
			"target":34962
		},
		{
			"buffer":0,
			"byteLength":1152,
			"byteOffset":34040,
			"target":34963
		}
	],
	"buffers":[
		{
			"byteLength":35192,
			"uri":"data:application/octet-stream;base64,"
		}
	]
}
