{
	"asset":{
		"generator":"Khronos glTF Blender I/O v3.6.27",
		"version":"2.0"
	},
	"extensionsUsed":[
		"KHR_materials_transmission",
		"KHR_materials_specular",
		"KHR_materials_ior"
	],
	"scene":0,
	"scenes":[
		{
			"name":"Scene",
			"nodes":[
				4
			]
		}
	],
	"nodes":[
		{
			"mesh":0,
			"name":"Frame Corner",
			"scale":[
				0.3499999940395355,
				1,
				1
			],
			"translation":[
				0.6838150024414062,
				-1.461089015007019,
				-1.6349735260009766
			]
		},
		{
			"mesh":1,
			"name":"Frame Left Right",
			"scale":[
				0.3499999940395355,
				1,
				0.4510098695755005
			],
			"translation":[
				0.6838150024414062,
				1.6035051345825195,
				-2.4349732398986816
			]
		},
		{
			"mesh":2,
			"name":"Frame Top Bottom",
			"scale":[
				0.3499999940395355,
				0.345991849899292,
				1
			],
			"translation":[
				0.7838150262832642,
				-2.4610888957977295,
				1.4296257495880127
			]
		},
		{
			"mesh":3,
			"name":"Glass",
			"scale":[
				0.12276829034090042,
				1,
				1
			],
			"translation":[
				0.6838150024414062,
				1.6035051345825195,
				1.429626226425171
			]
		},
		{
			"children":[
				0,
				1,
				2,
				3
			],
			"name":"CornerParent"
		}
	],
	"materials":[
		{
			"doubleSided":true,
			"name":"Door Frame Base Material",
			"pbrMetallicRoughness":{
				"baseColorFactor":[
					0.5,
					0.5,
					0.5,
					1
				],
				"baseColorTexture":{
					"index":0
				},
				"metallicFactor":0,
				"roughnessFactor":0.5
			}
		},
		{
			"alphaCutoff":0.3050314784049988,
			"alphaMode":"MASK",
			"doubleSided":true,
			"extensions":{
				"KHR_materials_transmission":{
					"transmissionFactor":0.8863636255264282
				},
				"KHR_materials_specular":{
					"specularColorFactor":[
						0.9831287481101079,
						0.9831287481101079,
						0.9831287481101079
					]
				},
				"KHR_materials_ior":{
					"ior":1.4500000476837158
				}
			},
			"name":"Glass Base Material",
			"pbrMetallicRoughness":{
				"baseColorFactor":[
					0.800000011920929,
					0.800000011920929,
					0.800000011920929,
					1
				],
				"metallicFactor":0,
				"roughnessFactor":0.0318182110786438
			}
		}
	],
	"meshes":[
		{
			"name":"Cube.002",
			"primitives":[
				{
					"attributes":{
						"POSITION":0,
						"NORMAL":1,
						"TEXCOORD_0":2
					},
					"indices":3,
					"material":0
				}
			]
		},
		{
			"name":"Cube.003",
			"primitives":[
				{
					"attributes":{
						"POSITION":4,
						"NORMAL":5,
						"TEXCOORD_0":6
					},
					"indices":7,
					"material":0
				}
			]
		},
		{
			"name":"Cube.001",
			"primitives":[
				{
					"attributes":{
						"POSITION":8,
						"NORMAL":9,
						"TEXCOORD_0":10
					},
					"indices":7,
					"material":0
				}
			]
		},
		{
			"name":"Cube.004",
			"primitives":[
				{
					"attributes":{
						"POSITION":11,
						"NORMAL":12,
						"TEXCOORD_0":13
					},
					"indices":7,
					"material":1
				}
			]
		}
	],
	"textures":[
		{
			"sampler":0,
			"source":0
		}
	],
	"images":[
		{
			"bufferView":4,
			"mimeType":"image/jpeg",
			"name":"Wood_023_roughness"
		}
	],
	"accessors":[
		{
			"bufferView":0,
			"componentType":5126,
			"count":46,
			"max":[
				1.5322952270507812,
				1.5322952270507812,
				1.5322942733764648
			],
			"min":[
				-1.5322952270507812,
				-1.5322952270507812,
				-1.5322961807250977
			],
			"type":"VEC3"
		},
		{
			"bufferView":1,
			"componentType":5126,
			"count":46,
			"type":"VEC3"
		},
		{
			"bufferView":2,
			"componentType":5126,
			"count":46,
			"type":"VEC2"
		},
		{
			"bufferView":3,
			"componentType":5123,
			"count":108,
			"type":"SCALAR"
		},
		{
			"bufferView":5,
			"componentType":5126,
			"count":24,
			"max":[
				1.5322952270507812,
				1.5322952270507812,
				1.532294750213623
			],
			"min":[
				-1.5322952270507812,
				-1.5322949886322021,
				-1.5322957038879395
			],
			"type":"VEC3"
		},
		{
			"bufferView":6,
			"componentType":5126,
			"count":24,
			"type":"VEC3"
		},
		{
			"bufferView":7,
			"componentType":5126,
			"count":24,
			"type":"VEC2"
		},
		{
			"bufferView":8,
			"componentType":5123,
			"count":36,
			"type":"SCALAR"
		},
		{
			"bufferView":9,
			"componentType":5126,
			"count":24,
			"max":[
				1.5322952270507812,
				1.5322952270507812,
				1.5322952270507812
			],
			"min":[
				-1.5322952270507812,
				-1.5322952270507812,
				-1.5322952270507812
			],
			"type":"VEC3"
		},
		{
			"bufferView":10,
			"componentType":5126,
			"count":24,
			"type":"VEC3"
		},
		{
			"bufferView":11,
			"componentType":5126,
			"count":24,
			"type":"VEC2"
		},
		{
			"bufferView":12,
			"componentType":5126,
			"count":24,
			"max":[
				1.5322952270507812,
				1.5322952270507812,
				1.5322954654693604
			],
			"min":[
				-1.5322952270507812,
				-1.5322949886322021,
				-1.5322949886322021
			],
			"type":"VEC3"
		},
		{
			"bufferView":13,
			"componentType":5126,
			"count":24,
			"type":"VEC3"
		},
		{
			"bufferView":14,
			"componentType":5126,
			"count":24,
			"type":"VEC2"
		}
	],
	"bufferViews":[
		{
			"buffer":0,
			"byteLength":552,
			"byteOffset":0,
			"target":34962
		},
		{
			"buffer":0,
			"byteLength":552,
			"byteOffset":552,
			"target":34962
		},
		{
			"buffer":0,
			"byteLength":368,
			"byteOffset":1104,
			"target":34962
		},
		{
			"buffer":0,
			"byteLength":216,
			"byteOffset":1472,
			"target":34963
		},
		{
			"buffer":0,
			"byteLength":176779,
			"byteOffset":1688
		},
		{
			"buffer":0,
			"byteLength":288,
			"byteOffset":178468,
			"target":34962
		},
		{
			"buffer":0,
			"byteLength":288,
			"byteOffset":178756,
			"target":34962
		},
		{
			"buffer":0,
			"byteLength":192,
			"byteOffset":179044,
			"target":34962
		},
		{
			"buffer":0,
			"byteLength":72,
			"byteOffset":179236,
			"target":34963
		},
		{
			"buffer":0,
			"byteLength":288,
			"byteOffset":179308,
			"target":34962
		},
		{
			"buffer":0,
			"byteLength":288,
			"byteOffset":179596,
			"target":34962
		},
		{
			"buffer":0,
			"byteLength":192,
			"byteOffset":179884,
			"target":34962
		},
		{
			"buffer":0,
			"byteLength":288,
			"byteOffset":180076,
			"target":34962
		},
		{
			"buffer":0,
			"byteLength":288,
			"byteOffset":180364,
			"target":34962
		},
		{
			"buffer":0,
			"byteLength":192,
			"byteOffset":180652,
			"target":34962
		}
	],
	"samplers":[
		{
			"magFilter":9729,
			"minFilter":9987
		}
	],
	"buffers":[
		{
			"byteLength":180844,
			"uri":"data:application/octet-stream;base64,"
		}
	]
}
