{
	"asset":{
		"generator":"Khronos glTF Blender I/O v3.6.27",
		"version":"2.0"
	},
	"scene":0,
	"scenes":[
		{
			"name":"Scene",
			"nodes":[
				1,
				3
			]
		}
	],
	"nodes":[
		{
			"mesh":0,
			"name":"Corner",
			"scale":[
				1,
				0.34787872433662415,
				0.33264073729515076
			],
			"translation":[
				-0.12499988079071045,
				-0.2507423460483551,
				0
			]
		},
		{
			"children":[
				0
			],
			"name":"CornerParent",
			"rotation":[
				0,
				-0.7071068286895752,
				0,
				0.7071068286895752
			],
			"translation":[
				0,
				0,
				-2
			]
		},
		{
			"mesh":1,
			"name":"Long",
			"scale":[
				1,
				0.30000001192092896,
				0.33264076709747314
			]
		},
		{
			"children":[
				2
			],
			"name":"LongParent",
			"rotation":[
				0,
				-0.7071068286895752,
				0,
				0.7071068286895752
			]
		}
	],
	"materials":[
		{
			"doubleSided":true,
			"name":"Material",
			"pbrMetallicRoughness":{
				"baseColorFactor":[
					0.800000011920929,
					0.800000011920929,
					0.800000011920929,
					1
				],
				"metallicFactor":0,
				"roughnessFactor":0.5
			}
		}
	],
	"meshes":[
		{
			"name":"Cube.001",
			"primitives":[
				{
					"attributes":{
						"POSITION":0,
						"NORMAL":1,
						"TEXCOORD_0":2
					},
					"indices":3,
					"material":0
				}
			]
		},
		{
			"name":"Cube",
			"primitives":[
				{
					"attributes":{
						"POSITION":4,
						"NORMAL":5,
						"TEXCOORD_0":6
					},
					"indices":7,
					"material":0
				}
			]
		}
	],
	"accessors":[
		{
			"bufferView":0,
			"componentType":5126,
			"count":40,
			"max":[
				1.125,
				1.7207751274108887,
				1
			],
			"min":[
				-0.875,
				-2.162325382232666,
				-1
			],
			"type":"VEC3"
		},
		{
			"bufferView":1,
			"componentType":5126,
			"count":40,
			"type":"VEC3"
		},
		{
			"bufferView":2,
			"componentType":5126,
			"count":40,
			"type":"VEC2"
		},
		{
			"bufferView":3,
			"componentType":5123,
			"count":78,
			"type":"SCALAR"
		},
		{
			"bufferView":4,
			"componentType":5126,
			"count":20,
			"max":[
				1,
				1,
				1
			],
			"min":[
				-1,
				-1,
				-1
			],
			"type":"VEC3"
		},
		{
			"bufferView":5,
			"componentType":5126,
			"count":20,
			"type":"VEC3"
		},
		{
			"bufferView":6,
			"componentType":5126,
			"count":20,
			"type":"VEC2"
		},
		{
			"bufferView":7,
			"componentType":5123,
			"count":30,
			"type":"SCALAR"
		}
	],
	"bufferViews":[
		{
			"buffer":0,
			"byteLength":480,
			"byteOffset":0,
			"target":34962
		},
		{
			"buffer":0,
			"byteLength":480,
			"byteOffset":480,
			"target":34962
		},
		{
			"buffer":0,
			"byteLength":320,
			"byteOffset":960,
			"target":34962
		},
		{
			"buffer":0,
			"byteLength":156,
			"byteOffset":1280,
			"target":34963
		},
		{
			"buffer":0,
			"byteLength":240,
			"byteOffset":1436,
			"target":34962
		},
		{
			"buffer":0,
			"byteLength":240,
			"byteOffset":1676,
			"target":34962
		},
		{
			"buffer":0,
			"byteLength":160,
			"byteOffset":1916,
			"target":34962
		},
		{
			"buffer":0,
			"byteLength":60,
			"byteOffset":2076,
			"target":34963
		}
	],
	"buffers":[
		{
			"byteLength":2136,
			"uri":"data:application/octet-stream;base64,"
		}
	]
}
