{
	"asset":{
		"generator":"Khronos glTF Blender I/O v3.6.27",
		"version":"2.0"
	},
	"scene":0,
	"scenes":[
		{
			"name":"Scene",
			"nodes":[
				5
			]
		}
	],
	"nodes":[
		{
			"mesh":0,
			"name":"corner_a",
			"scale":[
				0.6226217746734619,
				0.42435190081596375,
				2.086632013320923
			],
			"translation":[
				0.10000000149011612,
				2.299999952316284,
				-1.8999998569488525
			]
		},
		{
			"mesh":1,
			"name":"corner_b",
			"rotation":[
				-1,
				0,
				0,
				2.821299744937278e-07
			],
			"scale":[
				0.6226217746734619,
				0.42435190081596375,
				2.086632013320923
			],
			"translation":[
				0.09999998658895493,
				2.299999952316284,
				-1.9000003337860107
			]
		},
		{
			"mesh":2,
			"name":"glass",
			"rotation":[
				0.7071068286895752,
				0,
				0,
				0.7071068286895752
			],
			"scale":[
				0.15112781524658203,
				0.48144054412841797,
				0.23296721279621124
			],
			"translation":[
				0.10000000894069672,
				2.299999713897705,
				-1.899999976158142
			]
		},
		{
			"mesh":3,
			"name":"profil_h",
			"scale":[
				0.6226217746734619,
				0.42435190081596375,
				2.086632013320923
			],
			"translation":[
				0.10000000149011612,
				2.299999713897705,
				-1.8999998569488525
			]
		},
		{
			"mesh":4,
			"name":"profile_v",
			"rotation":[
				0.7071068286895752,
				0,
				0,
				0.7071068286895752
			],
			"scale":[
				0.6226217746734619,
				0.48144054412841797,
				2.1560237407684326
			],
			"translation":[
				0.10000002384185791,
				2.299999952316284,
				-1.899999976158142
			]
		},
		{
			"children":[
				0,
				1,
				2,
				3,
				4
			],
			"name":"Parent",
			"translation":[
				-0.10000000149011612,
				-2.299999952316284,
				1.899999976158142
			]
		}
	],
	"materials":[
		{
			"doubleSided":true,
			"name":"corner_a base material",
			"pbrMetallicRoughness":{
				"baseColorFactor":[
					0.800000011920929,
					0.800000011920929,
					0.800000011920929,
					1
				],
				"metallicFactor":0,
				"roughnessFactor":0.5
			}
		},
		{
			"doubleSided":true,
			"name":"corner_b base material",
			"pbrMetallicRoughness":{
				"baseColorFactor":[
					0.800000011920929,
					0.800000011920929,
					0.800000011920929,
					1
				],
				"metallicFactor":0,
				"roughnessFactor":0.5
			}
		},
		{
			"doubleSided":true,
			"name":"glass base material",
			"pbrMetallicRoughness":{
				"baseColorFactor":[
					0.800000011920929,
					0.800000011920929,
					0.800000011920929,
					1
				],
				"metallicFactor":0,
				"roughnessFactor":0.5
			}
		},
		{
			"doubleSided":true,
			"name":"profil_h base material",
			"pbrMetallicRoughness":{
				"baseColorFactor":[
					0.800000011920929,
					0.800000011920929,
					0.800000011920929,
					1
				],
				"metallicFactor":0,
				"roughnessFactor":0.5
			}
		},
		{
			"doubleSided":true,
			"name":"profile_v base material",
			"pbrMetallicRoughness":{
				"baseColorFactor":[
					0.800000011920929,
					0.800000011920929,
					0.800000011920929,
					1
				],
				"metallicFactor":0,
				"roughnessFactor":0.5
			}
		}
	],
	"meshes":[
		{
			"name":"Cube.003",
			"primitives":[
				{
					"attributes":{
						"POSITION":0,
						"NORMAL":1,
						"TEXCOORD_0":2
					},
					"indices":3,
					"material":0
				}
			]
		},
		{
			"name":"Cube.004",
			"primitives":[
				{
					"attributes":{
						"POSITION":4,
						"NORMAL":5,
						"TEXCOORD_0":6
					},
					"indices":3,
					"material":1
				}
			]
		},
		{
			"name":"Cube.006",
			"primitives":[
				{
					"attributes":{
						"POSITION":7,
						"NORMAL":8,
						"TEXCOORD_0":9
					},
					"indices":10,
					"material":2
				}
			]
		},
		{
			"name":"Cube.002",
			"primitives":[
				{
					"attributes":{
						"POSITION":11,
						"NORMAL":12,
						"TEXCOORD_0":13
					},
					"indices":14,
					"material":3
				}
			]
		},
		{
			"name":"Cube.005",
			"primitives":[
				{
					"attributes":{
						"POSITION":15,
						"NORMAL":16,
						"TEXCOORD_0":17
					},
					"indices":18,
					"material":4
				}
			]
		}
	],
	"accessors":[
		{
			"bufferView":0,
			"componentType":5126,
			"count":20,
			"max":[
				0.29594317078590393,
				-4.892970561981201,
				1.4469720125198364
			],
			"min":[
				-0.7201930284500122,
				-5.909106731414795,
				0.9831552505493164
			],
			"type":"VEC3"
		},
		{
			"bufferView":1,
			"componentType":5126,
			"count":20,
			"type":"VEC3"
		},
		{
			"bufferView":2,
			"componentType":5126,
			"count":20,
			"type":"VEC2"
		},
		{
			"bufferView":3,
			"componentType":5123,
			"count":30,
			"type":"SCALAR"
		},
		{
			"bufferView":4,
			"componentType":5126,
			"count":20,
			"max":[
				0.29594022035598755,
				5.909102439880371,
				-0.9832025766372681
			],
			"min":[
				-0.7201959490776062,
				4.892966270446777,
				-1.447019338607788
			],
			"type":"VEC3"
		},
		{
			"bufferView":5,
			"componentType":5126,
			"count":20,
			"type":"VEC3"
		},
		{
			"bufferView":6,
			"componentType":5126,
			"count":20,
			"type":"VEC2"
		},
		{
			"bufferView":7,
			"componentType":5126,
			"count":62,
			"max":[
				-0.3663216829299927,
				4.25105094909668,
				8.91447925567627
			],
			"min":[
				-1.3824578523635864,
				-0.11550331115722656,
				-0.4888887405395508
			],
			"type":"VEC3"
		},
		{
			"bufferView":8,
			"componentType":5126,
			"count":62,
			"type":"VEC3"
		},
		{
			"bufferView":9,
			"componentType":5126,
			"count":62,
			"type":"VEC2"
		},
		{
			"bufferView":10,
			"componentType":5123,
			"count":156,
			"type":"SCALAR"
		},
		{
			"bufferView":11,
			"componentType":5126,
			"count":32,
			"max":[
				0.29594317078590393,
				-4.892948627471924,
				0.9831507802009583
			],
			"min":[
				-0.7201930284500122,
				-5.909084796905518,
				-0.0329853892326355
			],
			"type":"VEC3"
		},
		{
			"bufferView":12,
			"componentType":5126,
			"count":32,
			"type":"VEC3"
		},
		{
			"bufferView":13,
			"componentType":5126,
			"count":32,
			"type":"VEC2"
		},
		{
			"bufferView":14,
			"componentType":5123,
			"count":60,
			"type":"SCALAR"
		},
		{
			"bufferView":15,
			"componentType":5126,
			"count":42,
			"max":[
				0.29582905769348145,
				6.261299133300781,
				0.9631443023681641
			],
			"min":[
				-0.7203071117401123,
				4.256901741027832,
				-0.052991896867752075
			],
			"type":"VEC3"
		},
		{
			"bufferView":16,
			"componentType":5126,
			"count":42,
			"type":"VEC3"
		},
		{
			"bufferView":17,
			"componentType":5126,
			"count":42,
			"type":"VEC2"
		},
		{
			"bufferView":18,
			"componentType":5123,
			"count":84,
			"type":"SCALAR"
		}
	],
	"bufferViews":[
		{
			"buffer":0,
			"byteLength":240,
			"byteOffset":0,
			"target":34962
		},
		{
			"buffer":0,
			"byteLength":240,
			"byteOffset":240,
			"target":34962
		},
		{
			"buffer":0,
			"byteLength":160,
			"byteOffset":480,
			"target":34962
		},
		{
			"buffer":0,
			"byteLength":60,
			"byteOffset":640,
			"target":34963
		},
		{
			"buffer":0,
			"byteLength":240,
			"byteOffset":700,
			"target":34962
		},
		{
			"buffer":0,
			"byteLength":240,
			"byteOffset":940,
			"target":34962
		},
		{
			"buffer":0,
			"byteLength":160,
			"byteOffset":1180,
			"target":34962
		},
		{
			"buffer":0,
			"byteLength":744,
			"byteOffset":1340,
			"target":34962
		},
		{
			"buffer":0,
			"byteLength":744,
			"byteOffset":2084,
			"target":34962
		},
		{
			"buffer":0,
			"byteLength":496,
			"byteOffset":2828,
			"target":34962
		},
		{
			"buffer":0,
			"byteLength":312,
			"byteOffset":3324,
			"target":34963
		},
		{
			"buffer":0,
			"byteLength":384,
			"byteOffset":3636,
			"target":34962
		},
		{
			"buffer":0,
			"byteLength":384,
			"byteOffset":4020,
			"target":34962
		},
		{
			"buffer":0,
			"byteLength":256,
			"byteOffset":4404,
			"target":34962
		},
		{
			"buffer":0,
			"byteLength":120,
			"byteOffset":4660,
			"target":34963
		},
		{
			"buffer":0,
			"byteLength":504,
			"byteOffset":4780,
			"target":34962
		},
		{
			"buffer":0,
			"byteLength":504,
			"byteOffset":5284,
			"target":34962
		},
		{
			"buffer":0,
			"byteLength":336,
			"byteOffset":5788,
			"target":34962
		},
		{
			"buffer":0,
			"byteLength":168,
			"byteOffset":6124,
			"target":34963
		}
	],
	"buffers":[
		{
			"byteLength":6292,
			"uri":"data:application/octet-stream;base64,"
		}
	]
}
