{
	"asset":{
		"generator":"Khronos glTF Blender I/O v3.6.27",
		"version":"2.0"
	},
	"extensionsUsed":[
		"KHR_materials_transmission",
		"KHR_materials_specular",
		"KHR_materials_ior"
	],
	"scene":0,
	"scenes":[
		{
			"name":"Scene",
			"nodes":[
				0
			]
		}
	],
	"nodes":[
		{
			"mesh":0,
			"name":"Door",
			"rotation":[
				0,
				0.7071068286895752,
				0,
				0.7071068286895752
			],
			"scale":[
				0.1558382213115692,
				0.0779191106557846,
				0.2637222409248352
			]
		}
	],
	"materials":[
		{
			"doubleSided":true,
			"name":"Door Frame Base Material",
			"pbrMetallicRoughness":{
				"baseColorTexture":{
					"index":0
				},
				"metallicFactor":0,
				"roughnessFactor":0.5
			}
		},
		{
			"alphaCutoff":0.3050314784049988,
			"alphaMode":"MASK",
			"doubleSided":true,
			"extensions":{
				"KHR_materials_transmission":{
					"transmissionFactor":0.8863636255264282
				},
				"KHR_materials_specular":{
					"specularColorFactor":[
						0.9831287481101079,
						0.9831287481101079,
						0.9831287481101079
					]
				},
				"KHR_materials_ior":{
					"ior":1.4500000476837158
				}
			},
			"name":"Glass Base Material",
			"pbrMetallicRoughness":{
				"baseColorFactor":[
					1,
					1,
					1,
					0.6363636255264282
				],
				"metallicFactor":0,
				"roughnessFactor":0.0318182110786438
			}
		}
	],
	"meshes":[
		{
			"name":"DoorBase",
			"primitives":[
				{
					"attributes":{
						"COLOR_0":0,
						"POSITION":1,
						"NORMAL":2,
						"TEXCOORD_0":3
					},
					"indices":4,
					"material":0
				},
				{
					"attributes":{
						"COLOR_0":5,
						"POSITION":6,
						"NORMAL":7,
						"TEXCOORD_0":8
					},
					"indices":9,
					"material":1
				}
			]
		}
	],
	"textures":[
		{
			"sampler":0,
			"source":0
		}
	],
	"images":[
		{
			"bufferView":5,
			"mimeType":"image/jpeg",
			"name":"Wood_023_roughness"
		}
	],
	"accessors":[
		{
			"bufferView":0,
			"componentType":5123,
			"count":141,
			"normalized":true,
			"type":"VEC4"
		},
		{
			"bufferView":1,
			"componentType":5126,
			"count":141,
			"max":[
				1.0000003576278687,
				65.90343475341797,
				5.000000476837158
			],
			"min":[
				-1.000000238418579,
				-0.057734131813049316,
				-12.688936233520508
			],
			"type":"VEC3"
		},
		{
			"bufferView":2,
			"componentType":5126,
			"count":141,
			"type":"VEC3"
		},
		{
			"bufferView":3,
			"componentType":5126,
			"count":141,
			"type":"VEC2"
		},
		{
			"bufferView":4,
			"componentType":5123,
			"count":276,
			"type":"SCALAR"
		},
		{
			"bufferView":6,
			"componentType":5123,
			"count":18,
			"normalized":true,
			"type":"VEC4"
		},
		{
			"bufferView":7,
			"componentType":5126,
			"count":18,
			"max":[
				0.26470303535461426,
				63.195098876953125,
				4.095210552215576
			],
			"min":[
				-0.26470309495925903,
				11.736766815185547,
				-11.784147262573242
			],
			"type":"VEC3"
		},
		{
			"bufferView":8,
			"componentType":5126,
			"count":18,
			"type":"VEC3"
		},
		{
			"bufferView":9,
			"componentType":5126,
			"count":18,
			"type":"VEC2"
		},
		{
			"bufferView":10,
			"componentType":5123,
			"count":36,
			"type":"SCALAR"
		}
	],
	"bufferViews":[
		{
			"buffer":0,
			"byteLength":1128,
			"byteOffset":0,
			"target":34962
		},
		{
			"buffer":0,
			"byteLength":1692,
			"byteOffset":1128,
			"target":34962
		},
		{
			"buffer":0,
			"byteLength":1692,
			"byteOffset":2820,
			"target":34962
		},
		{
			"buffer":0,
			"byteLength":1128,
			"byteOffset":4512,
			"target":34962
		},
		{
			"buffer":0,
			"byteLength":552,
			"byteOffset":5640,
			"target":34963
		},
		{
			"buffer":0,
			"byteLength":176779,
			"byteOffset":6192
		},
		{
			"buffer":0,
			"byteLength":144,
			"byteOffset":182972,
			"target":34962
		},
		{
			"buffer":0,
			"byteLength":216,
			"byteOffset":183116,
			"target":34962
		},
		{
			"buffer":0,
			"byteLength":216,
			"byteOffset":183332,
			"target":34962
		},
		{
			"buffer":0,
			"byteLength":144,
			"byteOffset":183548,
			"target":34962
		},
		{
			"buffer":0,
			"byteLength":72,
			"byteOffset":183692,
			"target":34963
		}
	],
	"samplers":[
		{
			"magFilter":9729,
			"minFilter":9987
		}
	],
	"buffers":[
		{
			"byteLength":183764,
			"uri":"data:application/octet-stream;base64,"
		}
	]
}
